<?xml version="1.0" encoding="UTF-8"?>
<!DOCTYPE svg PUBLIC "-//W3C//DTD SVG 1.1//EN" "http://www.w3.org/Graphics/SVG/1.1/DTD/svg11.dtd">
<svg xmlns="http://www.w3.org/2000/svg" version="1.1" width="1036px" height="144px" style="shape-rendering:geometricPrecision; text-rendering:geometricPrecision; image-rendering:optimizeQuality; fill-rule:evenodd; clip-rule:evenodd" xmlns:xlink="http://www.w3.org/1999/xlink">
<g><path style="opacity:0.905" fill="#000000" d="M 678.5,-0.5 C 678.833,-0.5 679.167,-0.5 679.5,-0.5C 679.333,32.5017 679.5,65.5017 680,98.5C 680.785,100.286 681.951,101.786 683.5,103C 675.833,103.667 668.167,103.667 660.5,103C 662,102.167 663.167,101 664,99.5C 664.667,69.8333 664.667,40.1667 664,10.5C 663.075,9.95349 662.242,9.28683 661.5,8.5C 667.663,6.2541 673.33,3.2541 678.5,-0.5 Z"/></g>
<g><path style="opacity:0.902" fill="#000000" d="M 710.5,-0.5 C 711.167,-0.5 711.833,-0.5 712.5,-0.5C 712.333,32.835 712.5,66.1683 713,99.5C 713.645,100.646 714.478,101.646 715.5,102.5C 708.189,103.665 700.856,103.831 693.5,103C 695,102.167 696.167,101 697,99.5C 697.667,70.1667 697.667,40.8333 697,11.5C 696.097,10.2986 694.931,9.46524 693.5,9C 697.714,6.81401 702.047,4.81401 706.5,3C 708.093,2.05127 709.426,0.884606 710.5,-0.5 Z"/></g>
<g><path style="opacity:0.933" fill="#000000" d="M 840.5,-0.5 C 840.833,-0.5 841.167,-0.5 841.5,-0.5C 841.333,13.504 841.5,27.504 842,41.5C 845.044,37.1395 849.211,34.3061 854.5,33C 859.833,32.3333 865.167,32.3333 870.5,33C 876.91,34.4458 881.077,38.2792 883,44.5C 883.333,62.8333 883.667,81.1667 884,99.5C 885.167,100.667 886.333,101.833 887.5,103C 879.833,103.667 872.167,103.667 864.5,103C 865.931,102.535 867.097,101.701 868,100.5C 868.667,82.1667 868.667,63.8333 868,45.5C 866.735,40.8985 863.735,38.5651 859,38.5C 851.759,39.2828 846.092,42.6161 842,48.5C 841.333,64.8333 841.333,81.1667 842,97.5C 842.346,99.8477 843.513,101.681 845.5,103C 838.167,103.667 830.833,103.667 823.5,103C 825.487,101.681 826.654,99.8477 827,97.5C 827.667,69.1667 827.667,40.8333 827,12.5C 826.363,10.6969 825.197,9.36359 823.5,8.5C 829.663,6.2541 835.33,3.2541 840.5,-0.5 Z"/></g>
<g><path style="opacity:0.942" fill="#000000" d="M -0.5,103.5 C -0.5,103.167 -0.5,102.833 -0.5,102.5C 2.34605,101.666 4.51272,99.9997 6,97.5C 6.66667,66.8333 6.66667,36.1667 6,5.5C 4.8906,3.18532 3.05727,1.68532 0.5,1C 8.07994,0.186777 15.5799,0.353443 23,1.5C 30.8232,17.8147 39.1565,33.8147 48,49.5C 55.1944,33.5828 62.1944,17.5828 69,1.5C 76.4201,0.353443 83.9201,0.186777 91.5,1C 89,2.16667 87.1667,4 86,6.5C 85.3333,36.5 85.3333,66.5 86,96.5C 87.5,99.3333 89.6667,101.5 92.5,103C 82.8333,103.667 73.1667,103.667 63.5,103C 65.96,101.542 68.1266,99.7089 70,97.5C 70.6667,70.1667 70.6667,42.8333 70,15.5C 61.4234,34.3185 52.5901,52.9852 43.5,71.5C 33.5054,52.8442 24.0054,33.8442 15,14.5C 14.3333,41.8333 14.3333,69.1667 15,96.5C 16.5,99.3333 18.6667,101.5 21.5,103C 14.1742,103.5 6.8409,103.666 -0.5,103.5 Z"/></g>
<g><path style="opacity:0.9" fill="#000000" d="M 523.5,1.5 C 530.677,0.180628 538.01,0.180628 545.5,1.5C 553.411,17.6562 561.578,33.6562 570,49.5C 577.717,33.3993 584.884,17.0659 591.5,0.5C 599.174,0.333648 606.841,0.500315 614.5,1C 612.152,1.34588 610.319,2.51255 609,4.5C 608.333,35.5 608.333,66.5 609,97.5C 610.277,99.7311 612.111,101.398 614.5,102.5C 604.851,103.665 595.184,103.832 585.5,103C 587.754,101.623 589.92,100.123 592,98.5C 592.667,71.1667 592.667,43.8333 592,16.5C 583.662,35.173 574.829,53.5064 565.5,71.5C 556.077,52.9873 546.911,34.3206 538,15.5C 537.333,42.8333 537.333,70.1667 538,97.5C 539.457,99.6579 541.29,101.491 543.5,103C 536.167,103.667 528.833,103.667 521.5,103C 524.102,102.117 526.269,100.617 528,98.5C 528.667,67.1667 528.667,35.8333 528,4.5C 526.871,2.85883 525.371,1.85883 523.5,1.5 Z"/></g>
<g><path style="opacity:0.895" fill="#000000" d="M 632.5,10.5 C 644.06,9.546 647.726,14.3793 643.5,25C 632.554,29.9437 627.721,26.4437 629,14.5C 630.376,13.2949 631.542,11.9616 632.5,10.5 Z"/></g>
<g><path style="opacity:0.887" fill="#000000" d="M 735.5,10.5 C 745.856,9.25021 749.69,13.5835 747,23.5C 742,28.8333 737,28.8333 732,23.5C 729.665,18.1829 730.832,13.8495 735.5,10.5 Z"/></g>
<g><path style="opacity:0.888" fill="#000000" d="M 361.5,31.5 C 370.5,30.8001 379,32.4668 387,36.5C 387.667,41.5 387.667,46.5 387,51.5C 382.148,39.9963 373.648,35.163 361.5,37C 354.688,42.9825 355.021,48.6492 362.5,54C 371.289,58.148 379.956,62.4814 388.5,67C 397.991,77.9345 397.658,88.6012 387.5,99C 373.833,107.12 359.833,107.62 345.5,100.5C 344.167,94.5 344.167,88.5 345.5,82.5C 350.442,92.9481 358.608,98.9481 370,100.5C 380.318,99.8564 385.318,94.5231 385,84.5C 383.954,82.9095 382.787,81.4095 381.5,80C 373.921,75.4368 365.921,71.7702 357.5,69C 346.405,62.1157 343.239,52.6157 348,40.5C 351.528,35.8341 356.028,32.8341 361.5,31.5 Z"/></g>
<g><path style="opacity:0.913" fill="#000000" d="M 1035.5,60.5 C 1035.5,65.1667 1035.5,69.8333 1035.5,74.5C 1028.21,97.9812 1012.54,107.481 988.5,103C 985.397,101.561 982.564,99.7272 980,97.5C 979.074,107.907 979.408,118.241 981,128.5C 981.75,129.126 982.584,129.626 983.5,130C 975.833,130.667 968.167,130.667 960.5,130C 961.931,129.535 963.097,128.701 964,127.5C 964.667,99.8333 964.667,72.1667 964,44.5C 963.075,43.9535 962.242,43.2868 961.5,42.5C 967.293,39.7696 972.96,36.7696 978.5,33.5C 979.314,35.7662 979.814,38.0995 980,40.5C 1007.06,24.1288 1025.56,30.7955 1035.5,60.5 Z M 991.5,39.5 C 1006.54,38.6983 1015.71,45.6983 1019,60.5C 1022.66,74.5562 1019.16,86.3895 1008.5,96C 996.531,101.902 987.031,99.069 980,87.5C 979.333,74.5 979.333,61.5 980,48.5C 982.683,43.922 986.517,40.922 991.5,39.5 Z"/></g>
<g><path style="opacity:0.918" fill="#000000" d="M 123.5,32.5 C 131.023,31.927 138.356,32.7604 145.5,35C 150.781,38.3823 153.948,43.2156 155,49.5C 155.333,65.5 155.667,81.5 156,97.5C 156.973,99.64 158.473,101.307 160.5,102.5C 153.866,103.497 147.2,103.83 140.5,103.5C 140.665,100.482 140.498,97.4816 140,94.5C 129.842,104.999 118.342,106.833 105.5,100C 97.5515,92.1648 96.3848,83.3314 102,73.5C 110.061,65.2464 119.895,60.4131 131.5,59C 140.957,54.6376 142.624,48.3043 136.5,40C 129.277,36.5012 122.61,37.5012 116.5,43C 112.333,47.1667 108.167,51.3333 104,55.5C 103.333,50.1667 103.333,44.8333 104,39.5C 110.418,36.6407 116.918,34.3074 123.5,32.5 Z M 139.5,59.5 C 140.658,68.6575 140.824,77.9908 140,87.5C 133.084,98.2306 125.084,99.2306 116,90.5C 112.861,82.259 114.361,75.0924 120.5,69C 126.647,65.26 132.98,62.0934 139.5,59.5 Z"/></g>
<g><path style="opacity:0.901" fill="#000000" d="M 199.5,32.5 C 202.167,32.5 204.833,32.5 207.5,32.5C 207.666,37.5111 207.499,42.5111 207,47.5C 203.034,42.7225 198.534,42.2225 193.5,46C 191.391,47.1411 189.558,48.6411 188,50.5C 187.333,66.8333 187.333,83.1667 188,99.5C 188.833,101 190,102.167 191.5,103C 183.833,103.667 176.167,103.667 168.5,103C 169.931,102.535 171.097,101.701 172,100.5C 172.667,81.8333 172.667,63.1667 172,44.5C 171.075,43.9535 170.242,43.2868 169.5,42.5C 175.316,39.759 180.983,36.759 186.5,33.5C 187.324,36.7848 187.824,40.1182 188,43.5C 190.495,38.353 194.329,34.6863 199.5,32.5 Z"/></g>
<g><path style="opacity:0.894" fill="#000000" d="M 238.5,32.5 C 246.843,31.9026 254.843,33.2359 262.5,36.5C 263.663,42.1375 263.83,47.8041 263,53.5C 259.619,49.2407 256.119,45.0741 252.5,41C 236.575,34.0485 226.741,39.2152 223,56.5C 218.64,91.8324 233.14,103.999 266.5,93C 256.232,102.236 244.232,105.569 230.5,103C 216.336,99.1697 208.169,90.0031 206,75.5C 204.901,52.1043 215.734,37.7709 238.5,32.5 Z"/></g>
<g><path style="opacity:0.897" fill="#000000" d="M 790.5,32.5 C 798.832,31.8999 806.832,33.2333 814.5,36.5C 815.663,42.1375 815.83,47.8041 815,53.5C 811.114,46.6135 805.614,41.4469 798.5,38C 785.378,36.651 777.545,42.4843 775,55.5C 772.642,66.9682 773.975,77.9682 779,88.5C 786.732,97.3923 796.232,99.8923 807.5,96C 810.618,95.1275 813.618,93.9608 816.5,92.5C 816.833,92.8333 817.167,93.1667 817.5,93.5C 807.538,102.41 795.871,105.577 782.5,103C 763.028,96.5845 754.861,83.0845 758,62.5C 762.969,46.0271 773.802,36.0271 790.5,32.5 Z"/></g>
<g><path style="opacity:0.918" fill="#000000" d="M 919.5,32.5 C 927.185,31.7357 934.519,32.9024 941.5,36C 946.209,39.2373 949.042,43.7373 950,49.5C 950.333,65.8333 950.667,82.1667 951,98.5C 952.167,100.333 953.667,101.833 955.5,103C 948.842,103.5 942.175,103.666 935.5,103.5C 935.665,100.482 935.498,97.4816 935,94.5C 923.714,106.036 911.381,107.37 898,98.5C 889.597,83.1036 893.43,71.6036 909.5,64C 915.121,62.178 920.788,60.5114 926.5,59C 937.028,53.7524 938.028,47.0858 929.5,39C 922.883,37.152 916.883,38.4853 911.5,43C 907.333,47.1667 903.167,51.3333 899,55.5C 898.333,50.1667 898.333,44.8333 899,39.5C 905.692,36.4369 912.525,34.1035 919.5,32.5 Z M 934.5,59.5 C 935.658,68.6575 935.824,77.9908 935,87.5C 928.915,97.7779 921.248,99.4446 912,92.5C 906.969,83.7807 908.135,75.9474 915.5,69C 921.647,65.26 927.98,62.0934 934.5,59.5 Z"/></g>
<g><path style="opacity:0.93" fill="#000000" d="M 289.5,33.5 C 291.323,51.8064 292.157,70.4731 292,89.5C 295.815,97.4819 301.649,99.3153 309.5,95C 311,93.5 312.5,92 314,90.5C 314.667,75.1667 314.667,59.8333 314,44.5C 312.745,43.7894 311.579,42.956 310.5,42C 317.251,40.3736 323.417,37.5403 329,33.5C 329.333,55.5 329.667,77.5 330,99.5C 330.645,100.646 331.478,101.646 332.5,102.5C 326.872,103.495 321.206,103.829 315.5,103.5C 315.664,100.813 315.497,98.146 315,95.5C 305.437,104.687 294.937,106.187 283.5,100C 281.3,97.7664 279.467,95.2664 278,92.5C 277.667,77.1667 277.333,61.8333 277,46.5C 276.07,44.4476 274.57,42.9476 272.5,42C 276.243,40.8635 279.91,39.5302 283.5,38C 286.106,37.2082 288.106,35.7082 289.5,33.5 Z"/></g>
<g><path style="opacity:0.908" fill="#000000" d="M 642.5,33.5 C 644.325,54.8102 645.158,76.4768 645,98.5C 645.785,100.286 646.951,101.786 648.5,103C 640.833,103.667 633.167,103.667 625.5,103C 626.931,102.535 628.097,101.701 629,100.5C 629.467,82.4835 629.8,64.4835 630,46.5C 629.363,44.6969 628.197,43.3636 626.5,42.5C 632.188,39.9931 637.521,36.9931 642.5,33.5 Z"/></g>
<g><path style="opacity:0.894" fill="#000000" d="M 745.5,33.5 C 747.325,55.1439 748.158,77.1439 748,99.5C 748.645,100.646 749.478,101.646 750.5,102.5C 743.189,103.665 735.856,103.831 728.5,103C 730.32,102.021 731.487,100.521 732,98.5C 732.667,80.5 732.667,62.5 732,44.5C 730.745,43.7894 729.579,42.956 728.5,42C 734.786,40.1905 740.453,37.3571 745.5,33.5 Z"/></g>
<g><path style="opacity:0.922" fill="#000000" d="M 532.5,137.5 C 533.209,138.404 534.209,138.737 535.5,138.5C 536.167,139.167 536.833,139.833 537.5,140.5C 533.329,141.262 529.329,142.262 525.5,143.5C 525.167,143.5 524.833,143.5 524.5,143.5C 520.828,142.759 517.161,141.593 513.5,140C 508.656,136.485 503.823,132.985 499,129.5C 489.191,137.661 478.024,142.328 465.5,143.5C 464.833,143.5 464.167,143.5 463.5,143.5C 455.082,142.279 446.749,140.279 438.5,137.5C 421.033,124.748 416.2,108.081 424,87.5C 428.48,80.5299 434.646,75.5299 442.5,72.5C 436.062,62.9239 435.895,53.2573 442,43.5C 450.719,36.8706 460.552,34.704 471.5,37C 474.528,38.9588 477.695,39.4588 481,38.5C 482.261,38.7591 483.261,39.4258 484,40.5C 484.667,46.8333 484.667,53.1667 484,59.5C 482.506,60.7472 481.006,60.7472 479.5,59.5C 475.493,48.63 467.826,43.13 456.5,43C 451.839,44.4939 449.172,47.6605 448.5,52.5C 449.935,58.0365 452.435,63.0365 456,67.5C 473.867,88.3678 493.367,107.534 514.5,125C 520.679,129.03 526.679,133.196 532.5,137.5 Z M 445.5,78.5 C 446.473,78.9867 447.473,79.4867 448.5,80C 461.65,95.6498 475.983,110.15 491.5,123.5C 487.024,127.614 481.691,130.114 475.5,131C 454.729,133.369 440.562,124.869 433,105.5C 429.642,92.889 433.808,83.889 445.5,78.5 Z"/></g>
<g><path style="opacity:0.871" fill="#0e2d51" d="M -0.5,137.5 C 145.833,137.5 292.167,137.5 438.5,137.5C 446.749,140.279 455.082,142.279 463.5,143.5C 308.833,143.5 154.167,143.5 -0.5,143.5C -0.5,141.5 -0.5,139.5 -0.5,137.5 Z"/></g>
<g><path style="opacity:0.873" fill="#0e2d51" d="M 532.5,137.5 C 700.167,137.5 867.833,137.5 1035.5,137.5C 1035.5,139.5 1035.5,141.5 1035.5,143.5C 865.5,143.5 695.5,143.5 525.5,143.5C 529.329,142.262 533.329,141.262 537.5,140.5C 538.289,140.217 538.956,139.717 539.5,139C 538.207,138.51 536.873,138.343 535.5,138.5C 534.209,138.737 533.209,138.404 532.5,137.5 Z"/></g>
<g><path style="opacity:0.886" fill="#343541" d="M 535.5,138.5 C 536.873,138.343 538.207,138.51 539.5,139C 538.956,139.717 538.289,140.217 537.5,140.5C 536.833,139.833 536.167,139.167 535.5,138.5 Z"/></g>
</svg>
