<?xml version="1.0" encoding="UTF-8"?>
<!DOCTYPE svg PUBLIC "-//W3C//DTD SVG 1.1//EN" "http://www.w3.org/Graphics/SVG/1.1/DTD/svg11.dtd">
<svg xmlns="http://www.w3.org/2000/svg" version="1.1" width="497px" height="70px" style="shape-rendering:geometricPrecision; text-rendering:geometricPrecision; image-rendering:optimizeQuality; fill-rule:evenodd; clip-rule:evenodd" xmlns:xlink="http://www.w3.org/1999/xlink">
<g><path style="opacity:0.922" fill="#fefffe" d="M 324.5,-0.5 C 324.833,-0.5 325.167,-0.5 325.5,-0.5C 325.333,15.1702 325.5,30.8369 326,46.5C 326.5,47.5 327,48.5 327.5,49.5C 323.878,50.6586 320.211,50.8253 316.5,50C 317,49.5 317.5,49 318,48.5C 318.167,41.3333 318.333,34.1667 318.5,27C 318.466,19.3337 317.799,11.8337 316.5,4.5C 319.558,3.31235 322.225,1.64568 324.5,-0.5 Z"/></g>
<g><path style="opacity:0.912" fill="#fefffe" d="M 340.5,-0.5 C 340.833,-0.5 341.167,-0.5 341.5,-0.5C 341.333,15.5035 341.5,31.5035 342,47.5C 342.692,48.0253 343.192,48.6919 343.5,49.5C 339.833,50.8333 336.167,50.8333 332.5,49.5C 332.808,48.6919 333.308,48.0253 334,47.5C 334.667,33.8333 334.667,20.1667 334,6.5C 333.308,5.97473 332.808,5.30806 332.5,4.5C 335.469,3.19317 338.135,1.5265 340.5,-0.5 Z"/></g>
<g><path style="opacity:0.896" fill="#fefffe" d="M 402.5,-0.5 C 402.833,-0.5 403.167,-0.5 403.5,-0.5C 403.334,6.17499 403.5,12.8417 404,19.5C 408.135,15.8086 412.969,14.6419 418.5,16C 420.286,16.7845 421.786,17.9512 423,19.5C 423.333,28.5 423.667,37.5 424,46.5C 424.5,47.5 425,48.5 425.5,49.5C 421.833,50.8333 418.167,50.8333 414.5,49.5C 414.808,48.6919 415.308,48.0253 416,47.5C 416.667,39.1667 416.667,30.8333 416,22.5C 411.947,18.4902 407.947,18.8236 404,23.5C 403.333,31.1667 403.333,38.8333 404,46.5C 404.5,47.5 405,48.5 405.5,49.5C 401.833,50.8333 398.167,50.8333 394.5,49.5C 394.808,48.6919 395.308,48.0253 396,47.5C 396.167,40.5 396.333,33.5 396.5,26.5C 396.465,18.9998 395.798,11.6664 394.5,4.5C 397.558,3.31235 400.225,1.64568 402.5,-0.5 Z"/></g>
<g><path style="opacity:0.886" fill="#fefffe" d="M -0.5,1.5 C -0.5,1.16667 -0.5,0.833333 -0.5,0.5C 3.55461,0.175753 7.55461,0.509086 11.5,1.5C 14.9117,8.65768 18.5784,15.6577 22.5,22.5C 26.09,15.6522 29.4233,8.65219 32.5,1.5C 36.122,0.3414 39.7887,0.174734 43.5,1C 42.6667,1.83333 41.8333,2.66667 41,3.5C 40.3333,17.8333 40.3333,32.1667 41,46.5C 42.0217,47.354 42.8551,48.354 43.5,49.5C 38.8333,50.8333 34.1667,50.8333 29.5,49.5C 30.7598,48.6184 31.9264,47.6184 33,46.5C 33.6667,33.8333 33.6667,21.1667 33,8.5C 28.9232,17.6528 24.5898,26.6528 20,35.5C 15.3942,26.6219 11.0608,17.6219 7,8.5C 6.33333,21.1667 6.33333,33.8333 7,46.5C 7.64494,47.646 8.47827,48.646 9.5,49.5C 6.23171,50.487 2.89838,50.8204 -0.5,50.5C -0.5,49.8333 -0.5,49.1667 -0.5,48.5C 0.495904,48.5858 1.32924,48.2524 2,47.5C 2.66667,32.5 2.66667,17.5 2,2.5C 1.32924,1.74756 0.495904,1.41423 -0.5,1.5 Z"/></g>
<g><path style="opacity:0.876" fill="#fefffe" d="M 250.5,1.5 C 253.976,0.356734 257.642,0.190067 261.5,1C 265.461,8.42188 269.294,15.9219 273,23.5C 276.326,16.2012 279.659,8.86784 283,1.5C 286.744,0.373958 290.577,0.207291 294.5,1C 293.333,1.5 292.5,2.33333 292,3.5C 291.333,17.8333 291.333,32.1667 292,46.5C 293.022,47.354 293.855,48.354 294.5,49.5C 289.833,50.8333 285.167,50.8333 280.5,49.5C 281.242,48.7132 282.075,48.0465 283,47.5C 283.667,35.1667 283.667,22.8333 283,10.5C 279.257,18.986 275.257,27.3193 271,35.5C 266.394,26.6219 262.061,17.6219 258,8.5C 257.333,21.1667 257.333,33.8333 258,46.5C 258.645,47.646 259.478,48.646 260.5,49.5C 256.878,50.6586 253.211,50.8253 249.5,50C 251,49.1667 252.167,48 253,46.5C 253.667,32.1667 253.667,17.8333 253,3.5C 252.583,2.24402 251.75,1.57735 250.5,1.5 Z"/></g>
<g><path style="opacity:0.815" fill="#fefffe" d="M 304.5,4.5 C 309.79,5.76652 310.79,8.59985 307.5,13C 302.545,14.3758 300.379,12.5425 301,7.5C 302.145,6.36362 303.312,5.36362 304.5,4.5 Z"/></g>
<g><path style="opacity:0.829" fill="#fefffe" d="M 353.5,4.5 C 358.385,5.52979 359.718,8.36312 357.5,13C 351.333,14.8333 349.167,12.6667 351,6.5C 351.995,5.93406 352.828,5.26739 353.5,4.5 Z"/></g>
<g><path style="opacity:0.84" fill="#fefffe" d="M 57.5,15.5 C 62.449,14.9589 67.1156,15.7922 71.5,18C 72.4601,19.4194 73.2935,20.9194 74,22.5C 74.3333,30.8333 74.6667,39.1667 75,47.5C 75.6924,48.0253 76.1924,48.6919 76.5,49.5C 73.2317,50.487 69.8984,50.8204 66.5,50.5C 66.6567,49.1266 66.49,47.7932 66,46.5C 61.4053,50.6807 56.2386,51.514 50.5,49C 44.9684,43.0358 45.3018,37.3692 51.5,32C 55.3921,30.3599 59.3921,29.0265 63.5,28C 67.8164,23.7667 67.1497,20.6 61.5,18.5C 56.9213,20.0438 53.088,22.7105 50,26.5C 49.3333,23.8333 49.3333,21.1667 50,18.5C 52.5667,17.4131 55.0667,16.4131 57.5,15.5 Z M 64.5,29.5 C 65.8001,31.223 66.4668,33.3897 66.5,36C 67.7198,42.7599 65.0532,46.0932 58.5,46C 53.1852,41.7139 53.1852,37.3806 58.5,33C 60.7274,32.059 62.7274,30.8923 64.5,29.5 Z"/></g>
<g><path style="opacity:0.873" fill="#fefffe" d="M 94.5,15.5 C 96.1667,15.5 97.8333,15.5 99.5,15.5C 99.6641,18.1873 99.4974,20.854 99,23.5C 95.4,20.646 92.4,21.3127 90,25.5C 89.3333,32.8333 89.3333,40.1667 90,47.5C 90.6924,48.0253 91.1924,48.6919 91.5,49.5C 87.878,50.6586 84.2113,50.8253 80.5,50C 81.1258,49.2496 81.6258,48.4162 82,47.5C 82.6667,39.1667 82.6667,30.8333 82,22.5C 81.5,22 81,21.5 80.5,21C 83.0048,19.2467 85.6714,17.7467 88.5,16.5C 89.2811,17.7287 89.7811,19.062 90,20.5C 91.025,18.313 92.525,16.6464 94.5,15.5 Z"/></g>
<g><path style="opacity:0.813" fill="#fefffe" d="M 112.5,15.5 C 116.605,15.2338 120.605,15.7338 124.5,17C 126.662,19.5219 126.995,22.3553 125.5,25.5C 123.263,21.5951 119.929,19.2618 115.5,18.5C 108.601,20.4388 105.601,25.1055 106.5,32.5C 106.101,38.4989 108.434,42.9989 113.5,46C 118.323,46.6089 122.99,46.2755 127.5,45C 118.528,52.4415 109.695,52.2748 101,44.5C 94.8973,30.7244 98.7307,21.0577 112.5,15.5 Z"/></g>
<g><path style="opacity:0.816" fill="#fefffe" d="M 170.5,15.5 C 175.536,15.0616 180.369,15.7283 185,17.5C 185.667,20.1667 185.667,22.8333 185,25.5C 183.548,20.8874 180.382,18.2207 175.5,17.5C 170.35,19.5642 169.683,22.3975 173.5,26C 179.589,27.7885 184.756,30.9552 189,35.5C 190.769,42.1263 188.603,46.9596 182.5,50C 176.482,50.9876 170.649,50.4876 165,48.5C 163.637,39.2459 165.137,38.0793 169.5,45C 173.265,47.9519 177.265,48.6186 181.5,47C 185.5,44 185.5,41 181.5,38C 178.326,36.2752 174.993,34.9419 171.5,34C 165.975,31.0812 164.142,26.5812 166,20.5C 167.025,18.313 168.525,16.6464 170.5,15.5 Z"/></g>
<g><path style="opacity:0.801" fill="#fefffe" d="M 377.5,15.5 C 382.006,15.1482 386.339,15.8148 390.5,17.5C 391.655,20.4459 391.821,23.4459 391,26.5C 388.825,23.6238 386.325,21.1238 383.5,19C 379.011,18.1604 375.511,19.6604 373,23.5C 367.956,41.7783 374.456,48.9449 392.5,45C 383.457,52.4925 374.623,52.3258 366,44.5C 359.747,30.7508 363.58,21.0842 377.5,15.5 Z"/></g>
<g><path style="opacity:0.827" fill="#fefffe" d="M 439.5,15.5 C 443.605,15.2338 447.605,15.7338 451.5,17C 453.894,18.9522 455.394,21.4522 456,24.5C 455.903,33.0275 456.737,41.3608 458.5,49.5C 455.232,50.487 451.898,50.8204 448.5,50.5C 448.657,49.1266 448.49,47.7932 448,46.5C 442.549,51.1597 436.716,51.6597 430.5,48C 427.077,41.7768 428.077,36.4435 433.5,32C 437.897,30.4848 442.23,28.8181 446.5,27C 449.158,22.7968 447.991,19.9635 443,18.5C 438.163,20.3312 434.163,23.3312 431,27.5C 430.179,24.4459 430.345,21.4459 431.5,18.5C 434.282,17.4844 436.949,16.4844 439.5,15.5 Z M 446.5,29.5 C 447.8,31.223 448.467,33.3897 448.5,36C 449.237,42.9228 446.237,46.2561 439.5,46C 436.651,43.4406 435.817,40.2739 437,36.5C 439.79,33.535 442.957,31.2016 446.5,29.5 Z"/></g>
<g><path style="opacity:0.837" fill="#fefffe" d="M 496.5,26.5 C 496.5,30.5 496.5,34.5 496.5,38.5C 491.488,49.8325 483.154,53.1659 471.5,48.5C 470.221,53.1862 470.221,57.8529 471.5,62.5C 467.878,63.6586 464.211,63.8253 460.5,63C 461,62.5 461.5,62 462,61.5C 462.167,54.8333 462.333,48.1667 462.5,41.5C 462.48,34.4283 461.813,27.595 460.5,21C 463.112,19.1105 465.945,17.6105 469,16.5C 469.945,16.9054 470.612,17.572 471,18.5C 482.478,12.4017 490.978,15.0684 496.5,26.5 Z M 474.5,19.5 C 484.417,19.4164 489.417,24.4164 489.5,34.5C 488.641,43.2027 483.975,47.3694 475.5,47C 473.714,46.2155 472.214,45.0488 471,43.5C 470.333,36.5 470.333,29.5 471,22.5C 472.145,21.3636 473.312,20.3636 474.5,19.5 Z"/></g>
<g><path style="opacity:0.857" fill="#fefffe" d="M 137.5,16.5 C 139.309,24.7755 140.142,33.4421 140,42.5C 142.823,47.3954 146.157,47.7287 150,43.5C 150.167,39.8333 150.333,36.1667 150.5,32.5C 150.429,28.3125 149.762,24.3125 148.5,20.5C 151.613,19.4441 154.613,18.1108 157.5,16.5C 158.188,27.5308 158.854,38.5308 159.5,49.5C 156.572,50.4841 153.572,50.8174 150.5,50.5C 150.649,49.448 150.483,48.448 150,47.5C 143.573,52.0713 137.906,51.4046 133,45.5C 132.667,37.8333 132.333,30.1667 132,22.5C 131.308,21.9747 130.808,21.3081 130.5,20.5C 133.152,19.5251 135.486,18.1918 137.5,16.5 Z"/></g>
<g><path style="opacity:0.796" fill="#fefffe" d="M 306.5,16.5 C 307.5,16.5 308.5,16.5 309.5,16.5C 309.189,27.5516 309.522,38.5516 310.5,49.5C 306.878,50.6586 303.211,50.8253 299.5,50C 300,49.5 300.5,49 301,48.5C 301.167,44 301.333,39.5 301.5,35C 301.468,30.0806 300.801,25.414 299.5,21C 301.993,19.5814 304.326,18.0814 306.5,16.5 Z"/></g>
<g><path style="opacity:0.865" fill="#fefffe" d="M 356.5,16.5 C 357.874,27.3006 359.207,38.3006 360.5,49.5C 356.833,50.8333 353.167,50.8333 349.5,49.5C 351.381,40.5978 351.881,31.5978 351,22.5C 350.308,21.9747 349.808,21.3081 349.5,20.5C 352.05,19.3964 354.383,18.063 356.5,16.5 Z"/></g>
<g><path style="opacity:0.7" fill="#fefffe" d="M 496.5,65.5 C 496.5,66.8333 496.5,68.1667 496.5,69.5C 414.167,69.5 331.833,69.5 249.5,69.5C 245.654,67.8449 242.154,65.5116 239,62.5C 235.025,66.0695 230.525,68.4028 225.5,69.5C 150.167,69.5 74.8333,69.5 -0.5,69.5C -0.5,68.1667 -0.5,66.8333 -0.5,65.5C 69.1675,65.6667 138.834,65.5 208.5,65C 203.646,61.4564 201.312,56.6231 201.5,50.5C 201.18,42.9735 204.513,37.8068 211.5,35C 209.135,30.5809 208.968,26.0809 211,21.5C 212.579,19.9588 214.413,18.7922 216.5,18C 221.572,17.2489 226.572,17.5822 231.5,19C 232.456,22.3936 232.789,25.8936 232.5,29.5C 231.448,29.6495 230.448,29.4828 229.5,29C 227.902,24.4014 224.735,21.5681 220,20.5C 215.999,21.8479 214.666,24.5146 216,28.5C 226.914,42.7483 239.747,54.915 254.5,65C 335.166,65.5 415.833,65.6667 496.5,65.5 Z M 211.5,38.5 C 212.552,38.3505 213.552,38.5172 214.5,39C 220.903,45.6824 227.403,52.1824 234,58.5C 234.667,59.1667 234.667,59.8333 234,60.5C 222.569,65.6892 213.902,62.6892 208,51.5C 206.668,46.4145 207.835,42.0812 211.5,38.5 Z"/></g>
</svg>
